<svg width="140" height="50" viewBox="0 0 140 50" fill="none" xmlns="http://www.w3.org/2000/svg">
<path d="M32.656 28C32.912 28.336 33.1867 28.5707 33.48 28.704C33.7787 28.8373 34.112 28.904 34.48 28.904C35.1947 28.904 35.7467 28.648 36.136 28.136C36.5307 27.6187 36.728 26.8667 36.728 25.88C36.728 25.3627 36.6827 24.9227 36.592 24.56C36.5067 24.192 36.3787 23.8933 36.208 23.664C36.0427 23.4293 35.8373 23.2587 35.592 23.152C35.3467 23.04 35.0693 22.984 34.76 22.984C34.3067 22.984 33.912 23.0853 33.576 23.288C33.2453 23.4907 32.9387 23.7787 32.656 24.152V28ZM32.576 23.088C32.7467 22.8853 32.928 22.7013 33.12 22.536C33.3173 22.3653 33.528 22.2213 33.752 22.104C33.976 21.9813 34.2133 21.888 34.464 21.824C34.72 21.7547 34.992 21.72 35.28 21.72C35.744 21.72 36.1627 21.8107 36.536 21.992C36.9147 22.1733 37.2373 22.44 37.504 22.792C37.7707 23.144 37.976 23.5787 38.12 24.096C38.2693 24.6133 38.344 25.208 38.344 25.88C38.344 26.4827 38.2613 27.0427 38.096 27.56C37.936 28.072 37.704 28.5173 37.4 28.896C37.1013 29.2747 36.7333 29.5733 36.296 29.792C35.864 30.0053 35.376 30.112 34.832 30.112C34.3467 30.112 33.9307 30.032 33.584 29.872C33.2373 29.712 32.928 29.488 32.656 29.2V32.728H31.096V21.872H32.032C32.2507 21.872 32.3867 21.976 32.44 22.184L32.576 23.088ZM44.464 26.392C43.8293 26.4133 43.2907 26.464 42.848 26.544C42.4053 26.6187 42.0453 26.72 41.768 26.848C41.4907 26.976 41.2907 27.128 41.168 27.304C41.0453 27.4747 40.984 27.6667 40.984 27.88C40.984 28.0827 41.016 28.2587 41.08 28.408C41.1493 28.552 41.24 28.672 41.352 28.768C41.4693 28.8587 41.6053 28.9253 41.76 28.968C41.9147 29.0107 42.0827 29.032 42.264 29.032C42.504 29.032 42.7227 29.008 42.92 28.96C43.1227 28.912 43.312 28.8453 43.488 28.76C43.664 28.6693 43.832 28.56 43.992 28.432C44.152 28.304 44.3093 28.1573 44.464 27.992V26.392ZM39.888 23.008C40.3413 22.576 40.832 22.2533 41.36 22.04C41.8933 21.8267 42.4773 21.72 43.112 21.72C43.576 21.72 43.9867 21.7973 44.344 21.952C44.7013 22.1013 45.0027 22.312 45.248 22.584C45.4933 22.856 45.6773 23.1813 45.8 23.56C45.928 23.9387 45.992 24.3573 45.992 24.816V30H45.296C45.1413 30 45.024 29.976 44.944 29.928C44.864 29.8747 44.8 29.7787 44.752 29.64L44.584 28.928C44.376 29.12 44.1707 29.2907 43.968 29.44C43.7653 29.584 43.552 29.7093 43.328 29.816C43.1093 29.9173 42.8747 29.9947 42.624 30.048C42.3733 30.1013 42.096 30.128 41.792 30.128C41.472 30.128 41.1707 30.0853 40.888 30C40.6107 29.9093 40.368 29.7733 40.16 29.592C39.952 29.4107 39.7867 29.184 39.664 28.912C39.5467 28.64 39.488 28.3227 39.488 27.96C39.488 27.64 39.5733 27.3333 39.744 27.04C39.92 26.7413 40.2027 26.4747 40.592 26.24C40.9867 26.0053 41.4987 25.8133 42.128 25.664C42.7627 25.5147 43.5413 25.4293 44.464 25.408V24.816C44.464 24.2027 44.3333 23.744 44.072 23.44C43.8107 23.136 43.4267 22.984 42.92 22.984C42.5787 22.984 42.2907 23.0267 42.056 23.112C41.8267 23.1973 41.6267 23.2933 41.456 23.4C41.2907 23.5013 41.144 23.5947 41.016 23.68C40.8933 23.7653 40.7653 23.808 40.632 23.808C40.5253 23.808 40.432 23.7787 40.352 23.72C40.2773 23.6613 40.216 23.592 40.168 23.512L39.888 23.008ZM50.9364 25.944C51.2137 25.944 51.4564 25.9067 51.6644 25.832C51.8777 25.7573 52.0537 25.6533 52.1924 25.52C52.3364 25.3813 52.443 25.216 52.5124 25.024C52.587 24.832 52.6244 24.6213 52.6244 24.392C52.6244 23.9227 52.4804 23.5493 52.1924 23.272C51.9097 22.9893 51.491 22.848 50.9364 22.848C50.387 22.848 49.9684 22.9893 49.6804 23.272C49.3977 23.5493 49.2564 23.9227 49.2564 24.392C49.2564 24.6213 49.291 24.832 49.3604 25.024C49.435 25.2107 49.5417 25.3733 49.6804 25.512C49.8244 25.6453 50.0004 25.752 50.2084 25.832C50.4217 25.9067 50.6644 25.944 50.9364 25.944ZM53.4244 30.424C53.4244 30.232 53.371 30.08 53.2644 29.968C53.1577 29.8507 53.011 29.76 52.8244 29.696C52.643 29.6267 52.4297 29.5787 52.1844 29.552C51.939 29.52 51.6804 29.496 51.4084 29.48C51.1417 29.464 50.867 29.4507 50.5844 29.44C50.3017 29.424 50.0297 29.3973 49.7684 29.36C49.491 29.4987 49.2617 29.6667 49.0804 29.864C48.9044 30.0613 48.8164 30.2933 48.8164 30.56C48.8164 30.7307 48.859 30.8907 48.9444 31.04C49.035 31.1893 49.171 31.3173 49.3524 31.424C49.539 31.536 49.771 31.6213 50.0484 31.68C50.331 31.744 50.667 31.776 51.0564 31.776C51.4404 31.776 51.779 31.7413 52.0724 31.672C52.3657 31.608 52.611 31.5147 52.8084 31.392C53.011 31.2747 53.163 31.1333 53.2644 30.968C53.371 30.8027 53.4244 30.6213 53.4244 30.424ZM55.0084 22.176V22.76C55.0084 22.952 54.8884 23.072 54.6484 23.12L53.7764 23.248C53.851 23.4133 53.9097 23.5893 53.9524 23.776C53.995 23.9573 54.0164 24.1493 54.0164 24.352C54.0164 24.752 53.939 25.1147 53.7844 25.44C53.6297 25.76 53.4164 26.0347 53.1444 26.264C52.8724 26.4933 52.547 26.6693 52.1684 26.792C51.795 26.9147 51.3844 26.976 50.9364 26.976C50.5684 26.976 50.2244 26.936 49.9044 26.856C49.7444 26.952 49.6217 27.0587 49.5364 27.176C49.4564 27.288 49.4164 27.4 49.4164 27.512C49.4164 27.6987 49.4937 27.8373 49.6484 27.928C49.8084 28.0187 50.0137 28.0853 50.2644 28.128C50.5204 28.1653 50.811 28.1893 51.1364 28.2C51.467 28.2107 51.8004 28.2293 52.1364 28.256C52.4777 28.2773 52.811 28.32 53.1364 28.384C53.467 28.4427 53.7577 28.5413 54.0084 28.68C54.2644 28.8133 54.4697 29 54.6244 29.24C54.7844 29.4747 54.8644 29.7813 54.8644 30.16C54.8644 30.512 54.7764 30.8533 54.6004 31.184C54.4297 31.5147 54.179 31.808 53.8484 32.064C53.5177 32.32 53.115 32.5253 52.6404 32.68C52.1657 32.8347 51.627 32.912 51.0244 32.912C50.4217 32.912 49.8964 32.8533 49.4484 32.736C49.0057 32.6187 48.635 32.4613 48.3364 32.264C48.043 32.0667 47.8217 31.8373 47.6724 31.576C47.5284 31.3147 47.4564 31.0427 47.4564 30.76C47.4564 30.3653 47.579 30.032 47.8244 29.76C48.0697 29.4827 48.4084 29.2667 48.8404 29.112C48.6057 29.0053 48.419 28.8613 48.2804 28.68C48.1417 28.4933 48.0724 28.248 48.0724 27.944C48.0724 27.8267 48.0937 27.7067 48.1364 27.584C48.179 27.456 48.243 27.3307 48.3284 27.208C48.419 27.08 48.5284 26.96 48.6564 26.848C48.7897 26.736 48.9417 26.6347 49.1124 26.544C48.7124 26.32 48.3977 26.024 48.1684 25.656C47.939 25.2827 47.8244 24.848 47.8244 24.352C47.8244 23.952 47.9017 23.592 48.0564 23.272C48.211 22.952 48.4244 22.6773 48.6964 22.448C48.9737 22.2187 49.3017 22.0427 49.6804 21.92C50.0644 21.7973 50.483 21.736 50.9364 21.736C51.6404 21.736 52.2457 21.8827 52.7524 22.176H55.0084ZM58.0718 21.872V30H56.5118V21.872H58.0718ZM58.3678 19.36C58.3678 19.504 58.3384 19.6427 58.2798 19.776C58.2211 19.904 58.1411 20.0187 58.0398 20.12C57.9438 20.216 57.8291 20.2933 57.6957 20.352C57.5624 20.4053 57.4238 20.432 57.2798 20.432C57.1358 20.432 56.9998 20.4053 56.8718 20.352C56.7438 20.2933 56.6291 20.216 56.5278 20.12C56.4318 20.0187 56.3544 19.904 56.2958 19.776C56.2424 19.6427 56.2158 19.504 56.2158 19.36C56.2158 19.2107 56.2424 19.072 56.2958 18.944C56.3544 18.8107 56.4318 18.696 56.5278 18.6C56.6291 18.4987 56.7438 18.4213 56.8718 18.368C56.9998 18.3093 57.1358 18.28 57.2798 18.28C57.4238 18.28 57.5624 18.3093 57.6957 18.368C57.8291 18.4213 57.9438 18.4987 58.0398 18.6C58.1411 18.696 58.2211 18.8107 58.2798 18.944C58.3384 19.072 58.3678 19.2107 58.3678 19.36ZM61.7944 23C61.9704 22.8133 62.1544 22.6427 62.3464 22.488C62.5384 22.3333 62.741 22.2027 62.9544 22.096C63.173 21.984 63.405 21.8987 63.6504 21.84C63.901 21.776 64.1677 21.744 64.4504 21.744C64.8984 21.744 65.2904 21.8187 65.6264 21.968C65.9677 22.1173 66.253 22.328 66.4824 22.6C66.7117 22.8667 66.885 23.1893 67.0024 23.568C67.1197 23.9467 67.1784 24.3653 67.1784 24.824V30H65.6104V24.824C65.6104 24.2427 65.477 23.792 65.2104 23.472C64.9437 23.1467 64.5357 22.984 63.9864 22.984C63.5864 22.984 63.2104 23.08 62.8584 23.272C62.5117 23.4587 62.189 23.7147 61.8904 24.04V30H60.3304V21.872H61.2664C61.485 21.872 61.621 21.976 61.6744 22.184L61.7944 23ZM73.6515 26.392C73.0168 26.4133 72.4782 26.464 72.0355 26.544C71.5928 26.6187 71.2328 26.72 70.9555 26.848C70.6782 26.976 70.4782 27.128 70.3555 27.304C70.2328 27.4747 70.1715 27.6667 70.1715 27.88C70.1715 28.0827 70.2035 28.2587 70.2675 28.408C70.3368 28.552 70.4275 28.672 70.5395 28.768C70.6568 28.8587 70.7928 28.9253 70.9475 28.968C71.1022 29.0107 71.2702 29.032 71.4515 29.032C71.6915 29.032 71.9102 29.008 72.1075 28.96C72.3102 28.912 72.4995 28.8453 72.6755 28.76C72.8515 28.6693 73.0195 28.56 73.1795 28.432C73.3395 28.304 73.4968 28.1573 73.6515 27.992V26.392ZM69.0755 23.008C69.5288 22.576 70.0195 22.2533 70.5475 22.04C71.0808 21.8267 71.6648 21.72 72.2995 21.72C72.7635 21.72 73.1742 21.7973 73.5315 21.952C73.8888 22.1013 74.1902 22.312 74.4355 22.584C74.6808 22.856 74.8648 23.1813 74.9875 23.56C75.1155 23.9387 75.1795 24.3573 75.1795 24.816V30H74.4835C74.3288 30 74.2115 29.976 74.1315 29.928C74.0515 29.8747 73.9875 29.7787 73.9395 29.64L73.7715 28.928C73.5635 29.12 73.3582 29.2907 73.1555 29.44C72.9528 29.584 72.7395 29.7093 72.5155 29.816C72.2968 29.9173 72.0622 29.9947 71.8115 30.048C71.5608 30.1013 71.2835 30.128 70.9795 30.128C70.6595 30.128 70.3582 30.0853 70.0755 30C69.7982 29.9093 69.5555 29.7733 69.3475 29.592C69.1395 29.4107 68.9742 29.184 68.8515 28.912C68.7342 28.64 68.6755 28.3227 68.6755 27.96C68.6755 27.64 68.7608 27.3333 68.9315 27.04C69.1075 26.7413 69.3902 26.4747 69.7795 26.24C70.1742 26.0053 70.6862 25.8133 71.3155 25.664C71.9502 25.5147 72.7288 25.4293 73.6515 25.408V24.816C73.6515 24.2027 73.5208 23.744 73.2595 23.44C72.9982 23.136 72.6142 22.984 72.1075 22.984C71.7662 22.984 71.4782 23.0267 71.2435 23.112C71.0142 23.1973 70.8142 23.2933 70.6435 23.4C70.4782 23.5013 70.3315 23.5947 70.2035 23.68C70.0808 23.7653 69.9528 23.808 69.8195 23.808C69.7128 23.808 69.6195 23.7787 69.5395 23.72C69.4648 23.6613 69.4035 23.592 69.3555 23.512L69.0755 23.008ZM86.5548 23.84C86.2988 23.504 86.0214 23.2693 85.7228 23.136C85.4294 23.0027 85.0988 22.936 84.7308 22.936C84.0161 22.936 83.4614 23.1947 83.0668 23.712C82.6774 24.224 82.4828 24.9733 82.4828 25.96C82.4828 26.4773 82.5254 26.92 82.6108 27.288C82.7014 27.6507 82.8294 27.9493 82.9948 28.184C83.1654 28.4133 83.3734 28.584 83.6188 28.696C83.8641 28.8027 84.1414 28.856 84.4508 28.856C84.9041 28.856 85.2961 28.7547 85.6268 28.552C85.9574 28.3493 86.2668 28.064 86.5548 27.696V23.84ZM88.1228 18.192V30H87.1788C86.9601 30 86.8241 29.896 86.7708 29.688L86.6348 28.752C86.2881 29.1627 85.8934 29.4933 85.4508 29.744C85.0134 29.9893 84.5068 30.112 83.9308 30.112C83.4668 30.112 83.0454 30.0213 82.6668 29.84C82.2934 29.6587 81.9734 29.3947 81.7068 29.048C81.4401 28.696 81.2348 28.2613 81.0908 27.744C80.9468 27.2267 80.8748 26.632 80.8748 25.96C80.8748 25.3573 80.9548 24.7973 81.1148 24.28C81.2748 23.7627 81.5068 23.3147 81.8108 22.936C82.1148 22.5573 82.4828 22.2613 82.9148 22.048C83.3468 21.8293 83.8348 21.72 84.3788 21.72C84.8694 21.72 85.2854 21.8 85.6268 21.96C85.9734 22.12 86.2828 22.3467 86.5548 22.64V18.192H88.1228ZM91.9311 21.872V30H90.3711V21.872H91.9311ZM92.2271 19.36C92.2271 19.504 92.1978 19.6427 92.1391 19.776C92.0805 19.904 92.0005 20.0187 91.8991 20.12C91.8031 20.216 91.6885 20.2933 91.5551 20.352C91.4218 20.4053 91.2831 20.432 91.1391 20.432C90.9951 20.432 90.8591 20.4053 90.7311 20.352C90.6031 20.2933 90.4885 20.216 90.3871 20.12C90.2911 20.0187 90.2138 19.904 90.1551 19.776C90.1018 19.6427 90.0751 19.504 90.0751 19.36C90.0751 19.2107 90.1018 19.072 90.1551 18.944C90.2138 18.8107 90.2911 18.696 90.3871 18.6C90.4885 18.4987 90.6031 18.4213 90.7311 18.368C90.8591 18.3093 90.9951 18.28 91.1391 18.28C91.2831 18.28 91.4218 18.3093 91.5551 18.368C91.6885 18.4213 91.8031 18.4987 91.8991 18.6C92.0005 18.696 92.0805 18.8107 92.1391 18.944C92.1978 19.072 92.2271 19.2107 92.2271 19.36ZM98.5578 26.392C97.9231 26.4133 97.3844 26.464 96.9418 26.544C96.4991 26.6187 96.1391 26.72 95.8618 26.848C95.5844 26.976 95.3844 27.128 95.2618 27.304C95.1391 27.4747 95.0778 27.6667 95.0778 27.88C95.0778 28.0827 95.1098 28.2587 95.1738 28.408C95.2431 28.552 95.3338 28.672 95.4457 28.768C95.5631 28.8587 95.6991 28.9253 95.8538 28.968C96.0084 29.0107 96.1764 29.032 96.3578 29.032C96.5978 29.032 96.8164 29.008 97.0138 28.96C97.2164 28.912 97.4058 28.8453 97.5818 28.76C97.7578 28.6693 97.9258 28.56 98.0858 28.432C98.2458 28.304 98.4031 28.1573 98.5578 27.992V26.392ZM93.9818 23.008C94.4351 22.576 94.9258 22.2533 95.4538 22.04C95.9871 21.8267 96.5711 21.72 97.2057 21.72C97.6698 21.72 98.0804 21.7973 98.4378 21.952C98.7951 22.1013 99.0964 22.312 99.3418 22.584C99.5871 22.856 99.7711 23.1813 99.8938 23.56C100.022 23.9387 100.086 24.3573 100.086 24.816V30H99.3898C99.2351 30 99.1178 29.976 99.0378 29.928C98.9578 29.8747 98.8938 29.7787 98.8458 29.64L98.6778 28.928C98.4698 29.12 98.2644 29.2907 98.0618 29.44C97.8591 29.584 97.6458 29.7093 97.4218 29.816C97.2031 29.9173 96.9684 29.9947 96.7178 30.048C96.4671 30.1013 96.1898 30.128 95.8858 30.128C95.5658 30.128 95.2644 30.0853 94.9818 30C94.7044 29.9093 94.4618 29.7733 94.2538 29.592C94.0458 29.4107 93.8804 29.184 93.7578 28.912C93.6404 28.64 93.5818 28.3227 93.5818 27.96C93.5818 27.64 93.6671 27.3333 93.8378 27.04C94.0138 26.7413 94.2964 26.4747 94.6858 26.24C95.0804 26.0053 95.5924 25.8133 96.2218 25.664C96.8564 25.5147 97.6351 25.4293 98.5578 25.408V24.816C98.5578 24.2027 98.4271 23.744 98.1658 23.44C97.9044 23.136 97.5204 22.984 97.0138 22.984C96.6724 22.984 96.3844 23.0267 96.1498 23.112C95.9204 23.1973 95.7204 23.2933 95.5498 23.4C95.3844 23.5013 95.2378 23.5947 95.1098 23.68C94.9871 23.7653 94.8591 23.808 94.7258 23.808C94.6191 23.808 94.5258 23.7787 94.4458 23.72C94.3711 23.6613 94.3098 23.592 94.2618 23.512L93.9818 23.008ZM105.03 25.944C105.307 25.944 105.55 25.9067 105.758 25.832C105.971 25.7573 106.147 25.6533 106.286 25.52C106.43 25.3813 106.537 25.216 106.606 25.024C106.681 24.832 106.718 24.6213 106.718 24.392C106.718 23.9227 106.574 23.5493 106.286 23.272C106.003 22.9893 105.585 22.848 105.03 22.848C104.481 22.848 104.062 22.9893 103.774 23.272C103.491 23.5493 103.35 23.9227 103.35 24.392C103.35 24.6213 103.385 24.832 103.454 25.024C103.529 25.2107 103.635 25.3733 103.774 25.512C103.918 25.6453 104.094 25.752 104.302 25.832C104.515 25.9067 104.758 25.944 105.03 25.944ZM107.518 30.424C107.518 30.232 107.465 30.08 107.358 29.968C107.251 29.8507 107.105 29.76 106.918 29.696C106.737 29.6267 106.523 29.5787 106.278 29.552C106.033 29.52 105.774 29.496 105.502 29.48C105.235 29.464 104.961 29.4507 104.678 29.44C104.395 29.424 104.123 29.3973 103.862 29.36C103.585 29.4987 103.355 29.6667 103.174 29.864C102.998 30.0613 102.91 30.2933 102.91 30.56C102.91 30.7307 102.953 30.8907 103.038 31.04C103.129 31.1893 103.265 31.3173 103.446 31.424C103.633 31.536 103.865 31.6213 104.142 31.68C104.425 31.744 104.761 31.776 105.15 31.776C105.534 31.776 105.873 31.7413 106.166 31.672C106.459 31.608 106.705 31.5147 106.902 31.392C107.105 31.2747 107.257 31.1333 107.358 30.968C107.465 30.8027 107.518 30.6213 107.518 30.424ZM109.102 22.176V22.76C109.102 22.952 108.982 23.072 108.742 23.12L107.87 23.248C107.945 23.4133 108.003 23.5893 108.046 23.776C108.089 23.9573 108.11 24.1493 108.11 24.352C108.11 24.752 108.033 25.1147 107.878 25.44C107.723 25.76 107.51 26.0347 107.238 26.264C106.966 26.4933 106.641 26.6693 106.262 26.792C105.889 26.9147 105.478 26.976 105.03 26.976C104.662 26.976 104.318 26.936 103.998 26.856C103.838 26.952 103.715 27.0587 103.63 27.176C103.55 27.288 103.51 27.4 103.51 27.512C103.51 27.6987 103.587 27.8373 103.742 27.928C103.902 28.0187 104.107 28.0853 104.358 28.128C104.614 28.1653 104.905 28.1893 105.23 28.2C105.561 28.2107 105.894 28.2293 106.23 28.256C106.571 28.2773 106.905 28.32 107.23 28.384C107.561 28.4427 107.851 28.5413 108.102 28.68C108.358 28.8133 108.563 29 108.718 29.24C108.878 29.4747 108.958 29.7813 108.958 30.16C108.958 30.512 108.87 30.8533 108.694 31.184C108.523 31.5147 108.273 31.808 107.942 32.064C107.611 32.32 107.209 32.5253 106.734 32.68C106.259 32.8347 105.721 32.912 105.118 32.912C104.515 32.912 103.99 32.8533 103.542 32.736C103.099 32.6187 102.729 32.4613 102.43 32.264C102.137 32.0667 101.915 31.8373 101.766 31.576C101.622 31.3147 101.55 31.0427 101.55 30.76C101.55 30.3653 101.673 30.032 101.918 29.76C102.163 29.4827 102.502 29.2667 102.934 29.112C102.699 29.0053 102.513 28.8613 102.374 28.68C102.235 28.4933 102.166 28.248 102.166 27.944C102.166 27.8267 102.187 27.7067 102.23 27.584C102.273 27.456 102.337 27.3307 102.422 27.208C102.513 27.08 102.622 26.96 102.75 26.848C102.883 26.736 103.035 26.6347 103.206 26.544C102.806 26.32 102.491 26.024 102.262 25.656C102.033 25.2827 101.918 24.848 101.918 24.352C101.918 23.952 101.995 23.592 102.15 23.272C102.305 22.952 102.518 22.6773 102.79 22.448C103.067 22.2187 103.395 22.0427 103.774 21.92C104.158 21.7973 104.577 21.736 105.03 21.736C105.734 21.736 106.339 21.8827 106.846 22.176H109.102ZM113.873 21.744C114.47 21.744 115.009 21.8427 115.489 22.04C115.974 22.232 116.385 22.512 116.721 22.88C117.062 23.2427 117.323 23.6827 117.505 24.2C117.686 24.712 117.777 25.288 117.777 25.928C117.777 26.568 117.686 27.1467 117.505 27.664C117.323 28.1813 117.062 28.6213 116.721 28.984C116.385 29.3467 115.974 29.6267 115.489 29.824C115.009 30.016 114.47 30.112 113.873 30.112C113.27 30.112 112.726 30.016 112.241 29.824C111.761 29.6267 111.35 29.3467 111.009 28.984C110.667 28.6213 110.403 28.1813 110.217 27.664C110.035 27.1467 109.945 26.568 109.945 25.928C109.945 25.288 110.035 24.712 110.217 24.2C110.403 23.6827 110.667 23.2427 111.009 22.88C111.35 22.512 111.761 22.232 112.241 22.04C112.726 21.8427 113.27 21.744 113.873 21.744ZM113.873 28.896C114.641 28.896 115.214 28.6373 115.593 28.12C115.971 27.6027 116.161 26.8747 116.161 25.936C116.161 24.9973 115.971 24.2693 115.593 23.752C115.214 23.2293 114.641 22.968 113.873 22.968C113.094 22.968 112.513 23.2293 112.129 23.752C111.75 24.2693 111.561 24.9973 111.561 25.936C111.561 26.8747 111.75 27.6027 112.129 28.12C112.513 28.6373 113.094 28.896 113.873 28.896ZM120.982 23C121.158 22.8133 121.342 22.6427 121.534 22.488C121.726 22.3333 121.929 22.2027 122.142 22.096C122.361 21.984 122.593 21.8987 122.838 21.84C123.089 21.776 123.355 21.744 123.638 21.744C124.086 21.744 124.478 21.8187 124.814 21.968C125.155 22.1173 125.441 22.328 125.67 22.6C125.899 22.8667 126.073 23.1893 126.19 23.568C126.307 23.9467 126.366 24.3653 126.366 24.824V30H124.798V24.824C124.798 24.2427 124.665 23.792 124.398 23.472C124.131 23.1467 123.723 22.984 123.174 22.984C122.774 22.984 122.398 23.08 122.046 23.272C121.699 23.4587 121.377 23.7147 121.078 24.04V30H119.518V21.872H120.454C120.673 21.872 120.809 21.976 120.862 22.184L120.982 23ZM132.839 26.392C132.204 26.4133 131.666 26.464 131.223 26.544C130.78 26.6187 130.42 26.72 130.143 26.848C129.866 26.976 129.666 27.128 129.543 27.304C129.42 27.4747 129.359 27.6667 129.359 27.88C129.359 28.0827 129.391 28.2587 129.455 28.408C129.524 28.552 129.615 28.672 129.727 28.768C129.844 28.8587 129.98 28.9253 130.135 28.968C130.29 29.0107 130.458 29.032 130.639 29.032C130.879 29.032 131.098 29.008 131.295 28.96C131.498 28.912 131.687 28.8453 131.863 28.76C132.039 28.6693 132.207 28.56 132.367 28.432C132.527 28.304 132.684 28.1573 132.839 27.992V26.392ZM128.263 23.008C128.716 22.576 129.207 22.2533 129.735 22.04C130.268 21.8267 130.852 21.72 131.487 21.72C131.951 21.72 132.362 21.7973 132.719 21.952C133.076 22.1013 133.378 22.312 133.623 22.584C133.868 22.856 134.052 23.1813 134.175 23.56C134.303 23.9387 134.367 24.3573 134.367 24.816V30H133.671C133.516 30 133.399 29.976 133.319 29.928C133.239 29.8747 133.175 29.7787 133.127 29.64L132.959 28.928C132.751 29.12 132.546 29.2907 132.343 29.44C132.14 29.584 131.927 29.7093 131.703 29.816C131.484 29.9173 131.25 29.9947 130.999 30.048C130.748 30.1013 130.471 30.128 130.167 30.128C129.847 30.128 129.546 30.0853 129.263 30C128.986 29.9093 128.743 29.7733 128.535 29.592C128.327 29.4107 128.162 29.184 128.039 28.912C127.922 28.64 127.863 28.3227 127.863 27.96C127.863 27.64 127.948 27.3333 128.119 27.04C128.295 26.7413 128.578 26.4747 128.967 26.24C129.362 26.0053 129.874 25.8133 130.503 25.664C131.138 25.5147 131.916 25.4293 132.839 25.408V24.816C132.839 24.2027 132.708 23.744 132.447 23.44C132.186 23.136 131.802 22.984 131.295 22.984C130.954 22.984 130.666 23.0267 130.431 23.112C130.202 23.1973 130.002 23.2933 129.831 23.4C129.666 23.5013 129.519 23.5947 129.391 23.68C129.268 23.7653 129.14 23.808 129.007 23.808C128.9 23.808 128.807 23.7787 128.727 23.72C128.652 23.6613 128.591 23.592 128.543 23.512L128.263 23.008ZM138.055 18.192V30H136.487V18.192H138.055Z" fill="black"/>
<path d="M21 19.5V14H15V19.5L18 22.5L21 19.5ZM13.5 21H8V27H13.5L16.5 24L13.5 21ZM15 28.5V34H21V28.5L18 25.5L15 28.5ZM22.5 21L19.5 24L22.5 27H28V21H22.5Z" fill="black"/>
</svg>
